<?xml version="1.0" encoding="UTF-8"?>
<svg version="1.1" xmlns="http://www.w3.org/2000/svg" width="2100" height="1080">
<path d="M0 0 C-4.33091561 6.33498895 -8.66438028 12.66822957 -13 19 C-13.7115625 20.03930664 -13.7115625 20.03930664 -14.4375 21.09960938 C-20.89842777 30.53141018 -27.42089195 39.91948345 -33.95629883 49.29980469 C-38.69521483 56.10790369 -43.39230576 62.94311439 -48.06591797 69.79614258 C-52.34085444 76.05629287 -56.6650589 82.28128599 -61 88.5 C-67.56214736 97.91484669 -74.06208679 107.37022921 -80.53125 116.84912109 C-87.94630967 127.70794351 -95.43965323 138.51110374 -102.95629883 149.29980469 C-107.69521483 156.10790369 -112.39230576 162.94311439 -117.06591797 169.79614258 C-121.34085444 176.05629287 -125.6650589 182.28128599 -130 188.5 C-136.56214736 197.91484669 -143.06208679 207.37022921 -149.53125 216.84912109 C-155.6174404 225.7619099 -161.74562953 234.64495472 -167.91308594 243.50170898 C-169.29680891 245.48971808 -170.67898837 247.47880246 -172.05957031 249.46899414 C-175.17852167 253.96326953 -178.30963332 258.44558677 -181.50390625 262.88671875 C-182.02533203 263.62019531 -182.54675781 264.35367187 -183.08398438 265.109375 C-184.04247374 266.45657802 -185.01068689 267.79693607 -185.99023438 269.12890625 C-188.35188359 272.22126178 -188.35188359 272.22126178 -188.78515625 275.91796875 C-187.86535505 278.35704358 -186.66659318 280.24875414 -185.18359375 282.39453125 C-184.59239746 283.2558667 -184.00120117 284.11720215 -183.39208984 285.00463867 C-182.7470752 285.93123291 -182.10206055 286.85782715 -181.4375 287.8125 C-180.76928223 288.78227783 -180.10106445 289.75205566 -179.41259766 290.7512207 C-177.28195821 293.83898528 -175.14223192 296.9202688 -173 300 C-172.3179248 300.98194336 -171.63584961 301.96388672 -170.93310547 302.97558594 C-168.23938237 306.85263005 -165.54381243 310.72836783 -162.84350586 314.60083008 C-158.69833426 320.54662833 -154.58356467 326.51174501 -150.5 332.5 C-145.70690445 339.52833004 -140.86487229 346.52116992 -136 353.5 C-130.60507082 361.2392153 -125.24892401 369.00282465 -119.93359375 376.796875 C-115.65880132 383.05676759 -111.33481478 389.28155603 -107 395.5 C-101.60507082 403.2392153 -96.24892401 411.00282465 -90.93359375 418.796875 C-86.65880132 425.05676759 -82.33481478 431.28155603 -78 437.5 C-72.60507082 445.2392153 -67.24892401 453.00282465 -61.93359375 460.796875 C-57.65880132 467.05676759 -53.33481478 473.28155603 -49 479.5 C-43.60565742 487.2383738 -38.24892841 495.0003624 -32.93579102 502.79467773 C-28.64500243 509.08013883 -24.29458354 515.32287221 -19.9375 521.5625 C-13.15230779 531.28440821 -6.5247156 541.10170985 0 551 C-2.91545816 552.45772908 -4.87520408 551.65689759 -8.07107544 551.08659363 C-10.01414833 550.74431732 -10.01414833 550.74431732 -11.99647522 550.39512634 C-13.44055548 550.1336424 -14.88460033 549.8719628 -16.32861328 549.61010742 C-17.84292087 549.34031189 -19.35731202 549.07098503 -20.8717804 548.80209351 C-25.8565863 547.91397813 -30.83863328 547.01093625 -35.8203125 546.10546875 C-36.66808179 545.95155237 -37.51585109 545.797636 -38.38931036 545.63905549 C-46.38711221 544.18646436 -54.3838646 542.72821903 -62.37823677 541.25686169 C-72.59892579 539.37613878 -82.823753 537.52296722 -93.05623257 535.70745391 C-100.25238351 534.42830111 -107.44234774 533.1175448 -114.62852466 531.78351098 C-118.91896399 530.98791818 -123.21086407 530.20630226 -127.50992203 529.45854759 C-131.56035547 528.75334164 -135.60167652 528.00905433 -139.63950157 527.23501205 C-141.11706952 526.95870831 -142.59731806 526.69629352 -144.08008385 526.44939995 C-151.40559176 525.22153754 -156.91462796 523.99809677 -161.79338074 517.97399902 C-162.89910948 516.34034773 -163.9730031 514.68425947 -165 513 C-165.7993568 511.86457426 -166.60237824 510.73170914 -167.41088867 509.6027832 C-168.0732251 508.59562256 -168.73556152 507.58846191 -169.41796875 506.55078125 C-169.79319672 505.98371964 -170.16842468 505.41665802 -170.55502319 504.83241272 C-171.35505377 503.62250917 -172.15302053 502.41123863 -172.94900513 501.19866943 C-175.12498297 497.88475753 -177.31776795 494.58196872 -179.5078125 491.27734375 C-179.96025833 490.59371765 -180.41270416 489.91009155 -180.87886047 489.20574951 C-185.72212709 481.89404372 -190.63689324 474.63139147 -195.5625 467.375 C-195.99744781 466.73391296 -196.43239563 466.09282593 -196.88052368 465.43231201 C-199.06190087 462.21714579 -201.24416113 459.00258109 -203.42724609 455.78857422 C-205.95997061 452.05959809 -208.49001334 448.32880802 -211.01953125 444.59765625 C-218.76657704 433.1717812 -226.5259426 421.75447184 -234.30712891 410.35180664 C-241.74569107 399.44752823 -249.15165435 388.52112529 -256.56054688 377.59667969 C-260.14486747 372.31175598 -263.73074552 367.02788918 -267.31652832 361.74395752 C-269.29441811 358.82934973 -271.27220371 355.91467124 -273.25 353 C-274.04166617 351.833333 -274.83333284 350.66666633 -275.625 349.5 C-280.37500006 342.49999991 -280.37500006 342.49999991 -281.56233215 340.75024414 C-282.35455433 339.58276097 -283.14678049 338.41528051 -283.93901062 337.24780273 C-285.90971056 334.34365063 -287.8803428 331.43945265 -289.85083008 328.53515625 C-293.51396279 323.13622551 -297.17773057 317.73772929 -300.84384155 312.34082031 C-302.54898474 309.83057906 -304.25375324 307.32008345 -305.95849609 304.80957031 C-306.760231 303.62910565 -307.56214326 302.44876141 -308.36425781 301.26855469 C-313.61730045 293.53926991 -318.82890681 285.78425284 -324 278 C-329.3835586 285.2830139 -334.52123257 292.68568969 -339.5 300.25 C-344.94137659 308.46843893 -350.47123432 316.61373826 -356.125 324.6875 C-361.69308094 332.64430448 -367.15010742 340.66267818 -372.51586914 348.75708008 C-377.31777277 355.99511062 -382.18028464 363.19101428 -387.0625 370.375 C-387.45974274 370.95962006 -387.85698547 371.54424011 -388.26626587 372.14657593 C-389.90736598 374.56169187 -391.54856142 376.97674294 -393.1900177 379.39161682 C-397.52620838 385.77186535 -401.85208497 392.1590865 -406.17733765 398.54675293 C-409.68132213 403.72127642 -413.18658232 408.89493605 -416.69165039 414.06872559 C-417.56651651 415.36012855 -418.44135358 416.65155119 -419.31616211 417.94299316 C-421.88943764 421.7417404 -424.46340248 425.54001887 -427.03833008 429.33764648 C-427.82680663 430.50074075 -428.6150668 431.66398174 -429.40307617 432.82739258 C-431.17803397 435.44778978 -432.96001914 438.05796348 -434.78959656 440.64073181 C-436.30261409 442.83974136 -437.36231179 444.79059385 -438.49092102 447.25331116 C-440.97603893 452.09048047 -443.30602452 455.79591079 -448.40663528 458.07566071 C-455.93336235 460.47246156 -463.74755054 461.60569298 -471.52734375 462.86328125 C-474.04402673 463.31077515 -476.55985572 463.7630962 -479.07484436 464.22001648 C-484.99802961 465.28398879 -490.92761962 466.29853254 -496.86332089 467.28928202 C-503.61895941 468.41988362 -510.36253796 469.61575963 -517.10607135 470.81611693 C-527.57792308 472.678267 -538.05541468 474.5055049 -548.54272461 476.27856445 C-549.57802811 476.45450638 -550.6133316 476.6304483 -551.68000793 476.8117218 C-552.62055023 476.96963196 -553.56109253 477.12754211 -554.53013611 477.29023743 C-555.34990401 477.42821401 -556.16967192 477.56619059 -557.01428127 477.70834827 C-559 478 -559 478 -561 478 C-559.68056307 474.39620056 -558.08831863 471.41670738 -555.91015625 468.26171875 C-555.29664307 467.36783447 -554.68312988 466.4739502 -554.05102539 465.55297852 C-553.06670532 464.13456665 -553.06670532 464.13456665 -552.0625 462.6875 C-551.38372803 461.70128662 -550.70495605 460.71507324 -550.00561523 459.69897461 C-548.63595225 457.70972142 -547.26431412 455.72182662 -545.890625 453.73535156 C-544.29645052 451.42890388 -542.70811292 449.11873189 -541.125 446.8046875 C-535.14631722 438.06912388 -529.09440974 429.38488546 -523.04321289 420.69946289 C-518.2999062 413.88512708 -513.59819727 407.04383106 -508.92089844 400.18408203 C-504.77785453 394.11612786 -500.5812422 388.08676436 -496.375 382.0625 C-490.34554232 373.42222861 -484.40285094 364.72689816 -478.5 356 C-471.94836233 346.31392199 -465.33133121 336.67800188 -458.63671875 327.08984375 C-454.03661242 320.49975179 -449.47955297 313.88214032 -444.96069336 307.23608398 C-441.89233124 302.73279025 -438.78212451 298.2623984 -435.63671875 293.8125 C-434.89808594 292.76384766 -434.15945313 291.71519531 -433.3984375 290.63476562 C-431.94726824 288.57723324 -430.49041157 286.52369803 -429.02734375 284.47460938 C-428.3725 283.54455078 -427.71765625 282.61449219 -427.04296875 281.65625 C-426.45539795 280.82931641 -425.86782715 280.00238281 -425.26245117 279.15039062 C-423.74686014 276.98441273 -423.74686014 276.98441273 -424 274 C-425.2153222 271.84524289 -425.2153222 271.84524289 -426.90234375 269.5546875 C-427.85367187 268.20600586 -427.85367187 268.20600586 -428.82421875 266.83007812 C-429.52160156 265.85490234 -430.21898437 264.87972656 -430.9375 263.875 C-432.41664288 261.77954758 -433.8944638 259.6831615 -435.37109375 257.5859375 C-435.75345184 257.04430969 -436.13580994 256.50268188 -436.52975464 255.94464111 C-440.59373588 250.17989166 -444.54871071 244.34241071 -448.5 238.5 C-455.37208642 228.35947261 -462.3393578 218.28890212 -469.34765625 208.2421875 C-474.69779767 200.57138582 -479.98501386 192.85762752 -485.27246094 185.14355469 C-491.10649307 176.63466548 -496.97709284 168.15226346 -502.875 159.6875 C-508.31074622 151.88561293 -513.70844359 144.0596489 -519.06591797 136.20385742 C-523.34085498 129.94370634 -527.66513188 123.71876558 -532 117.5 C-538.58405076 108.05157213 -545.12916567 98.57802692 -551.60302734 89.05371094 C-552.51038643 87.71978842 -553.41946922 86.38703618 -554.33056641 85.05566406 C-555.49573241 83.35269416 -556.65438057 81.64526981 -557.8125 79.9375 C-558.43769531 79.01839844 -559.06289062 78.09929687 -559.70703125 77.15234375 C-561 75 -561 75 -561 73 C-541.98463632 76.05264779 -523.0561694 79.52971212 -504.12677002 83.06781006 C-501.80903612 83.50064688 -499.49110775 83.93242494 -497.1730957 84.36376953 C-496.02797532 84.57687224 -496.02797532 84.57687224 -494.85972118 84.79428005 C-493.32971758 85.07886286 -491.79967391 85.36323037 -490.26958942 85.64737797 C-486.55394066 86.33808428 -482.83948499 87.0342217 -479.12724304 87.74302673 C-472.90177651 88.9281897 -466.68558962 90.07770989 -460.41137695 90.98266602 C-445.674706 93.17988427 -445.674706 93.17988427 -441.37890625 98.02734375 C-439.89038086 100.3918457 -439.89038086 100.3918457 -438.5625 102.9375 C-438.02052979 103.82719482 -437.47855957 104.71688965 -436.92016602 105.63354492 C-435.79042761 107.4883223 -434.68568717 109.35855668 -433.60644531 111.24316406 C-431.08520593 115.56988671 -428.25003493 119.67193676 -425.4375 123.8125 C-424.2690847 125.57045362 -423.10249542 127.32962191 -421.9375 129.08984375 C-417.31416151 136.04758529 -412.62638866 142.96135401 -407.9375 149.875 C-407.49260223 150.5311026 -407.04770447 151.1872052 -406.58932495 151.8631897 C-404.30593134 155.23038786 -402.02200541 158.59722446 -399.73779297 161.96386719 C-395.75665355 167.83212994 -391.78035488 173.70367117 -387.80380249 179.57504272 C-386.49929367 181.50104284 -385.19462275 183.42693303 -383.88989258 185.3527832 C-379.89527957 191.24906454 -375.90112342 197.1456538 -371.90859985 203.04335022 C-361.90997492 217.81313975 -351.89824986 232.57355393 -341.83984375 247.30273438 C-339.81746552 250.26760098 -337.79909218 253.23516952 -335.78125 256.203125 C-335.08628418 257.22462646 -334.39131836 258.24612793 -333.67529297 259.29858398 C-332.33494512 261.26888575 -330.99539315 263.23972924 -329.65673828 265.21118164 C-328.76317627 266.52397095 -328.76317627 266.52397095 -327.8515625 267.86328125 C-327.32385254 268.63969971 -326.79614258 269.41611816 -326.25244141 270.21606445 C-325.12144479 271.93602877 -325.12144479 271.93602877 -324 273 C-323.45214844 272.17242188 -322.90429688 271.34484375 -322.33984375 270.4921875 C-317.34108966 262.95896033 -312.28695858 255.4654205 -307.1875 248 C-301.06341056 239.03424475 -294.9625351 230.05309117 -288.875 221.0625 C-288.43290192 220.40962006 -287.99080383 219.75674011 -287.53530884 219.08407593 C-285.2668153 215.73392951 -282.99856371 212.38361939 -280.73046875 209.03320312 C-276.27981534 202.45884336 -271.82751717 195.88559762 -267.375 189.3125 C-266.93986084 188.67010376 -266.50472168 188.02770752 -266.05639648 187.36584473 C-256.32403276 172.99837733 -246.57937025 158.63926684 -236.83325195 144.28112793 C-223.87783849 125.19485838 -210.93536771 106.09986038 -198 87 C-194.88495041 82.40043904 -191.76981067 77.80093918 -188.65447998 73.2015686 C-186.27982046 69.69792311 -186.27982046 69.69792311 -183.91459656 66.18791199 C-183.09485533 64.98782863 -182.25603968 63.80060474 -181.4009552 62.6254425 C-178.32884114 58.32083088 -176.03272422 53.99215158 -173.82055664 49.18359375 C-168.46967572 38.27218261 -162.58348858 29.02450977 -150.62904549 24.93581104 C-138.38493725 21.35077972 -125.70015366 19.62105898 -113.09072113 17.86473083 C-107.37505271 17.04223387 -101.68258101 16.0828962 -95.98681641 15.13378906 C-87.05028029 13.65791881 -78.10612582 12.24903597 -69.15087891 10.89160156 C-58.87487118 9.32716628 -48.65403262 7.55996623 -38.44921875 5.5859375 C-37.7895857 5.45878231 -37.12995266 5.33162712 -36.45033073 5.20061874 C-33.38352037 4.60844602 -30.3177822 4.01097226 -27.25259399 3.41046143 C-22.02469058 2.38818683 -16.79224246 1.39339512 -11.5546875 0.421875 C-10.70972214 0.25843597 -9.86475677 0.09499695 -8.9941864 -0.07339478 C-3.34365092 -1.11455031 -3.34365092 -1.11455031 0 0 Z " fill="#06ED16" transform="translate(2003,269)"/>
<path d="M0 0 C15.84 0 31.68 0 48 0 C52.5947449 18.37897962 52.5947449 18.37897962 54.48828125 27.15209961 C54.8175497 28.66280848 54.8175497 28.66280848 55.15347004 30.20403671 C55.87550127 33.51963188 56.59401824 36.83597777 57.3125 40.15234375 C57.83582337 42.55903123 58.35936372 44.96567154 58.88310242 47.37226868 C60.15090329 53.20056556 61.41641845 59.02935438 62.68088204 64.85837585 C64.15752706 71.6649413 65.63702828 78.47088498 67.1166352 85.27680707 C70.09959106 98.99839131 73.0791868 112.72070372 76.05751705 126.44329262 C76.38243986 127.94036499 76.70736338 129.43743721 77.0322876 130.93450928 C77.27455286 132.05073475 77.27455286 132.05073475 77.52171236 133.18951023 C79.3502785 141.61426823 81.17976566 150.0388262 83.00927734 158.46337891 C91.01048503 195.30798668 99.00756817 232.15348747 107 269 C108.97544194 265.24699673 110.00342428 261.46577897 110.98925781 257.36108398 C111.17902789 256.58783437 111.36879797 255.81458475 111.56431866 255.01790333 C112.19855333 252.42840795 112.82584014 249.83728071 113.453125 247.24609375 C113.90500347 245.3945767 114.35728882 243.54315891 114.80995178 241.6918335 C116.03854328 236.66153997 117.26099823 231.62977282 118.48233414 226.59771347 C119.51146059 222.36115765 120.54429601 218.12550992 121.5772028 213.88987446 C129.32514646 182.11720219 137.00507704 150.32804604 144.67602539 118.53671265 C150.94409018 92.56112423 157.26036023 66.59796595 163.65737534 40.65381241 C164.24421373 38.27347035 164.83059411 35.89301584 165.41690063 33.51254272 C166.32274946 29.83561116 167.23017422 26.15907225 168.13900948 22.48287773 C168.62355231 20.52220848 169.10707526 18.56128727 169.59056091 16.60035706 C169.88068558 15.42931931 170.17081024 14.25828156 170.46972656 13.05175781 C170.7186969 12.04493958 170.96766724 11.03812134 171.22418213 10.00079346 C172.09015182 6.65130091 173.04956797 3.32651211 174 0 C199.08 0 224.16 0 250 0 C261.06204175 43.91959149 271.84548878 87.90039856 282.53173828 131.91259766 C283.40429591 135.50626228 284.27686216 139.0999248 285.14945602 142.69358063 C285.73218781 145.09349177 286.31489299 147.49340937 286.89757156 149.89333344 C293.29699809 176.2488682 299.7370775 202.59440646 306.1875 228.9375 C306.69630258 231.01564453 307.20510184 233.09378986 307.71389771 235.17193604 C310.47480036 246.44823463 313.23675503 257.72427516 316 269 C317.80331709 264.90282059 318.82133556 260.7636578 319.73876953 256.40185547 C319.90291005 255.6393045 320.06705057 254.87675354 320.23616505 254.09109497 C320.78914591 251.5173193 321.33586457 248.94225141 321.8828125 246.3671875 C322.28525086 244.48933651 322.68814253 242.61158263 323.09144592 240.73391724 C323.97242717 236.62893418 324.85085978 232.52341698 325.72738647 228.41748047 C327.89872511 218.24809805 330.08411925 208.08173244 332.26917839 197.91529083 C332.80004396 195.44520451 333.33075863 192.97508575 333.86133003 190.50493622 C338.69620068 167.99814226 343.57605922 145.50125178 348.47265625 123.0078125 C348.65299943 122.17937128 348.83334261 121.35093005 349.01915073 120.49738455 C351.56001463 108.82615272 354.10279738 97.1553392 356.64606762 85.48463154 C357.54760037 81.34750051 358.44900259 77.21034105 359.35040283 73.07318115 C359.52707515 72.26231627 359.70374746 71.45145139 359.88577348 70.61601484 C360.75892744 66.60851959 361.63205378 62.60101833 362.50513744 58.59350777 C362.84314085 57.04206451 363.18114495 55.49062141 363.51914978 53.93917847 C363.7661169 52.80558818 363.7661169 52.80558818 364.01807326 51.64909708 C364.97460474 47.25875331 365.93145193 42.86847851 366.88859391 38.47826779 C367.33572896 36.42723186 367.78275914 34.3761731 368.22974968 32.32510567 C368.76647396 29.86235987 369.30337315 27.39965219 369.84050179 24.93699455 C370.20280797 23.27423327 370.20280797 23.27423327 370.57243347 21.57788086 C370.92206933 19.97745438 370.92206933 19.97745438 371.27876854 18.34469604 C371.79991067 15.92791017 372.31003945 13.50874047 372.81328773 11.08816528 C373.07968748 9.81198334 373.34608723 8.53580139 373.62055969 7.22094727 C373.86096639 6.054673 374.10137308 4.88839874 374.34906483 3.68678284 C375 1 375 1 376 0 C377.50418739 -0.09311889 379.01271356 -0.11746028 380.51977539 -0.11352539 C381.96115623 -0.11341209 381.96115623 -0.11341209 383.43165588 -0.11329651 C384.99882607 -0.10555458 384.99882607 -0.10555458 386.59765625 -0.09765625 C387.66165146 -0.0962413 388.72564667 -0.09482635 389.82188416 -0.09336853 C393.23545083 -0.08775064 396.648953 -0.07519511 400.0625 -0.0625 C402.37044176 -0.05748731 404.67838455 -0.052924 406.98632812 -0.04882812 C412.65757563 -0.03862437 418.32877968 -0.01985876 424 0 C420.53108913 17.71929028 416.80445424 35.37508251 412.95093179 53.01432967 C412.16341211 56.62146129 411.37841901 60.22914294 410.59306335 63.83674622 C409.07038158 70.82937143 407.54539827 77.82149259 406.01943439 84.81340224 C404.78371175 90.47550146 403.54868642 96.13775234 402.31414795 101.80010986 C402.13766582 102.60955252 401.96118369 103.41899518 401.77935362 104.2529664 C401.42124034 105.89546798 401.06312753 107.53796965 400.70501518 109.18047142 C398.334354 120.05330136 395.96295801 130.92597068 393.58990479 141.79827881 C389.64188271 159.88663517 385.69762486 177.97579958 381.76072788 196.06658077 C379.1435945 208.09254016 376.52349869 220.11785137 373.90081692 232.14260197 C372.36244602 239.19626982 370.82544697 246.2502304 369.29196167 253.30496216 C367.86198023 259.88344762 366.42759705 266.46095757 364.99015236 273.037817 C364.46619617 275.43852773 363.94372932 277.83956405 363.42285728 280.24094582 C362.71574848 283.49989648 362.0033406 286.7576439 361.28955078 290.01513672 C361.08512076 290.96344895 360.88069075 291.91176119 360.67006588 292.88881016 C360.47803868 293.759919 360.28601149 294.63102785 360.08816528 295.52853394 C359.92508944 296.27691465 359.76201359 297.02529537 359.59399605 297.79635429 C358.92976724 300.26055414 357.94784553 302.63038619 357 305 C330.27 305 303.54 305 276 305 C267.19678242 270.08057026 258.61245893 235.11802194 250.1725769 200.10964966 C248.75361817 194.22400966 247.33416091 188.33849013 245.9140625 182.453125 C245.5567678 180.9723689 245.5567678 180.9723689 245.19225502 179.46169853 C238.60063974 152.1526276 231.91195037 124.86726824 225.2199707 97.58264923 C224.28216678 93.75873427 223.34479311 89.93471388 222.40741348 86.11069489 C221.77602504 83.53611192 221.14378571 80.96173913 220.51144409 78.38739014 C217.62032872 66.6043316 214.79660394 54.80583186 212 43 C208.1251018 56.54845299 204.68654867 70.1782034 201.37890625 83.875 C200.84096596 86.09262724 200.30274006 88.31018522 199.76425171 90.52767944 C198.62095298 95.23800357 197.47941148 99.94874845 196.33932495 104.65985107 C194.54181915 112.08728175 192.74024833 119.51372237 190.93774414 126.93994141 C190.63526607 128.18616838 190.33278799 129.43239536 190.02114391 130.7163868 C189.40773233 133.24365027 188.79430833 135.77091072 188.18087196 138.29816818 C187.25549382 142.11111644 186.33049 145.92415534 185.40556335 149.73721313 C179.61077448 173.62330714 173.77956488 197.50043145 167.9375 221.375 C167.49698985 223.17545347 167.05648879 224.97590915 166.61599731 226.77636719 C166.40290641 227.64733913 166.1898155 228.51831108 165.9702673 229.41567612 C165.54659056 231.14743452 165.1229333 232.87919768 164.699296 234.61096573 C163.68057123 238.77525671 162.66149142 242.93946 161.64155579 247.10345459 C159.72193253 254.94296628 157.80807006 262.78381292 155.90720654 270.62789726 C154.97750539 274.46426129 154.04620334 278.30023612 153.11493111 282.13621902 C152.66893406 283.97566112 152.22381656 285.81531672 151.7796154 287.65519333 C151.16713175 290.19203594 150.55176214 292.72816247 149.93579102 295.26416016 C149.75379969 296.02154102 149.57180836 296.77892189 149.38430214 297.55925369 C148.11378102 302.77243796 148.11378102 302.77243796 147 305 C120.27 305 93.54 305 66 305 C61.40506176 286.62024703 61.40506176 286.62024703 59.86303711 279.51269531 C59.68091014 278.68274614 59.49878317 277.85279697 59.3111372 276.99769783 C58.71427033 274.27499791 58.12077495 271.55157562 57.52734375 268.828125 C57.09165395 266.83700412 56.65576514 264.84592677 56.21969604 262.85488892 C55.03711187 257.45227701 53.85757563 252.04900381 52.67865372 246.64559174 C51.67851753 242.06347321 50.6765813 237.48174904 49.67465115 232.90002251 C40.25165338 189.80831033 30.86813843 146.70793843 21.48999023 103.60644531 C21.22125564 102.37154861 20.95252104 101.13665192 20.67564297 99.86433411 C19.35136529 93.77863203 18.02783567 87.69276916 16.70585632 81.60656738 C14.14343851 69.81452043 11.5684255 58.02541117 8.96683228 46.24194789 C7.97973229 41.76815243 6.99615988 37.29357928 6.01190758 32.81915665 C5.47465265 30.38217647 4.93551186 27.94561121 4.3943882 25.50948715 C3.64981877 22.1572286 2.91153825 18.8036414 2.17456055 15.44970703 C1.95279585 14.45957233 1.73103115 13.46943764 1.50254631 12.44929886 C1.30312494 11.53614285 1.10370358 10.62298683 0.89823914 9.68215942 C0.72370555 8.89377245 0.54917196 8.10538548 0.36934948 7.29310799 C0 5 0 5 0 0 Z " fill="#000000" transform="translate(118,357)"/>
<path d="M0 0 C1.07121094 0.82564453 1.07121094 0.82564453 2.1640625 1.66796875 C23.59051961 18.95425387 34.06766809 48.38838893 36.98413086 74.91259766 C38.17652331 87.0774095 38.52071721 98.83426231 37 111 C-22.4 111 -81.8 111 -143 111 C-138.62154378 142.12943017 -138.62154378 142.12943017 -122 168 C-121.34 168.33 -120.68 168.66 -120 169 C-120 169.66 -120 170.32 -120 171 C-119.26652344 171.27070312 -118.53304688 171.54140625 -117.77734375 171.8203125 C-115.11229425 172.95230258 -112.96251652 174.26944302 -110.5625 175.875 C-93.74803783 186.17008238 -69.48561368 186.3138208 -50.5625 182.75 C-35.10819127 179.01665576 -21.38313348 171.8948479 -12.75 158.125 C-9.84656933 153.22332588 -8.18320345 148.45800863 -6 143 C8.19 143 22.38 143 37 143 C34.55981015 164.96170869 24.1336034 183.71806441 6.90625 197.69921875 C-22.81134891 219.73977127 -63.2826098 223.72206091 -98.9765625 218.68359375 C-126.20501601 214.29758389 -150.07064596 200.9336285 -167 179 C-175.55718667 166.91731862 -180.96611124 153.60852462 -184.8125 139.375 C-185.10483521 138.30354736 -185.10483521 138.30354736 -185.40307617 137.21044922 C-188.65870508 124.35724351 -189.38172814 111.43407362 -189.3125 98.25 C-189.31034485 97.5064325 -189.3081897 96.76286499 -189.30596924 95.99676514 C-189.25241837 84.4511369 -188.78636864 73.24811708 -186 62 C-185.80132324 61.18966309 -185.60264648 60.37932617 -185.39794922 59.54443359 C-178.01096262 30.48895297 -161.56025084 5.88846018 -135.6484375 -9.8984375 C-95.13161273 -33.67772557 -36.19090467 -29.72436165 0 0 Z M-123.80859375 27.5703125 C-130.59934606 35.09945321 -135.16294856 43.38063045 -138.4375 52.9375 C-138.78977661 53.95432861 -138.78977661 53.95432861 -139.14916992 54.99169922 C-141.46010407 62.34459374 -141.94534718 69.09010389 -143 77 C-98.12 77 -53.24 77 -7 77 C-9.17063253 57.46430725 -11.66670805 44.18383247 -23 29 C-23.51949219 28.29230469 -24.03898437 27.58460938 -24.57421875 26.85546875 C-34.09458446 15.78585717 -51.40089805 11.39094215 -65.25244141 10.34619141 C-86.01027924 9.09013159 -108.19954118 12.77103188 -123.80859375 27.5703125 Z " fill="#000000" transform="translate(1362,449)"/>
<path d="M0 0 C11.89041811 10.21680771 21.59043744 23.25414272 23.6875 39.1875 C23.94654114 41.09671989 23.94654114 41.09671989 24.21081543 43.04450989 C24.91721702 49.52741742 24.85678569 56.02411207 24.87695312 62.5378418 C24.8849111 63.97143793 24.89330024 65.40503173 24.90208435 66.83862305 C24.92005315 69.91268407 24.93510101 72.98674024 24.94786072 76.06082726 C24.96825375 80.94454063 24.99588902 85.82819733 25.02453613 90.71186829 C25.08445088 101.09955187 25.13624239 111.4872707 25.1875 121.875 C25.24281325 133.04924876 25.29982713 144.22347989 25.36504889 155.39767581 C25.38846127 159.44588721 25.4100528 163.49409018 25.42713928 167.5423336 C25.50019476 184.77794961 25.68948067 201.97480169 26.6875 219.1875 C20.7243674 219.21137588 14.76126477 219.230334 8.7980957 219.24243164 C6.76781702 219.24747278 4.73754198 219.25430557 2.70727539 219.26293945 C-0.20427347 219.27501467 -3.1157745 219.28073034 -6.02734375 219.28515625 C-7.39764992 219.29289818 -7.39764992 219.29289818 -8.79563904 219.30079651 C-10.96825427 219.30099168 -13.14077296 219.24961805 -15.3125 219.1875 C-16.9109987 217.5890013 -16.62796795 215.79333338 -16.8125 213.578125 C-16.8945166 212.60488281 -16.9765332 211.63164063 -17.06103516 210.62890625 C-17.14401855 209.57574219 -17.22700195 208.52257812 -17.3125 207.4375 C-17.44277588 205.83455078 -17.44277588 205.83455078 -17.57568359 204.19921875 C-18.38803855 193.8717944 -18.90280173 183.53777201 -19.3125 173.1875 C-19.69019531 174.03570313 -20.06789063 174.88390625 -20.45703125 175.7578125 C-29.75094054 195.56450443 -43.99752813 210.43869595 -64.5 218.875 C-76.79358397 223.28490204 -88.67535201 224.72774036 -101.6875 224.625 C-102.69765167 224.62043793 -102.69765167 224.62043793 -103.72821045 224.61578369 C-124.72178839 224.47598805 -143.67217587 219.48203964 -159.6484375 205.08203125 C-172.61714484 191.86988401 -177.48281381 174.83030409 -177.6875 156.6875 C-177.50615671 139.08135516 -173.1260893 123.21286593 -160.5390625 110.2890625 C-137.97209412 88.98901164 -104.72576781 86.43262825 -75.49908447 81.74383545 C-70.8226264 80.99266714 -66.14819264 80.2305848 -61.47581291 79.45443916 C-59.32961741 79.10226729 -57.18140194 78.76555731 -55.03260803 78.42967224 C-37.53843777 75.71248474 -37.53843777 75.71248474 -23.3125 66.1875 C-18.24666724 56.92151476 -18.57916927 49.04171519 -21.27734375 39.08984375 C-24.01579889 31.41183557 -29.08412259 26.68497772 -36.3125 23.1875 C-43.14962884 20.65083047 -49.94399606 19.47540072 -57.1875 18.875 C-58.18056152 18.79233887 -59.17362305 18.70967773 -60.19677734 18.62451172 C-78.40451747 17.35272207 -97.93455459 18.90089211 -112.3125 31.1875 C-121.1614466 39.10087515 -123.26078177 49.90304975 -125.3125 61.1875 C-140.8225 61.1875 -156.3325 61.1875 -172.3125 61.1875 C-172.3125 40.4043087 -166.22241351 22.90946689 -152.1875 7.5 C-115.85351314 -26.23270836 -39.68722485 -30.28440542 0 0 Z M-23.4375 97.3125 C-37.8849551 106.3965239 -55.68469484 109.07821916 -72.0625 112.75 C-76.9351942 113.84314669 -81.80431698 114.95063864 -86.671875 116.06640625 C-87.76280457 116.30613663 -88.85373413 116.545867 -89.97772217 116.79286194 C-104.51175428 120.12667762 -118.43905303 125.6588662 -127.3125 138.1875 C-131.88876664 146.30668275 -131.63763251 157.28804 -129.62109375 166.265625 C-126.44738243 174.92361572 -120.65283758 181.26941395 -112.3125 185.1875 C-108.69304106 186.48985404 -105.07868142 187.41508655 -101.3125 188.1875 C-100.17748047 188.42146484 -100.17748047 188.42146484 -99.01953125 188.66015625 C-80.72206494 191.40005224 -60.57995099 185.25822109 -45.9140625 174.4140625 C-29.60444938 160.77633139 -21.14462298 139.90975131 -18.5 119.1875 C-18.12866874 111.1951162 -18.23859398 103.18577397 -18.3125 95.1875 C-20.66670019 95.00006333 -20.66670019 95.00006333 -23.4375 97.3125 Z " fill="#000000" transform="translate(743.3125,442.8125)"/>
<path d="M0 0 C13.27312879 12.56109025 20.00770762 27.64987815 22.96484375 45.4375 C22.96484375 46.7575 22.96484375 48.0775 22.96484375 49.4375 C7.45484375 49.4375 -8.05515625 49.4375 -24.03515625 49.4375 C-25.35515625 44.8175 -26.67515625 40.1975 -28.03515625 35.4375 C-35.86204989 22.617588 -45.24453162 16.69715136 -59.5078125 12.75390625 C-75.66612595 9.13264589 -97.43565186 9.75267883 -112.02734375 18.13671875 C-119.36034834 22.88747854 -123.41093356 28.23592247 -125.63671875 36.734375 C-126.70542077 43.74307196 -125.58937387 50.49558807 -122.28515625 56.75 C-114.19054131 66.41856785 -104.51444526 68.9119714 -92.390625 70.65625 C-91.18561844 70.84086792 -89.98061188 71.02548584 -88.73908997 71.21569824 C-84.90198728 71.80167294 -81.06260938 72.37053354 -77.22265625 72.9375 C-72.19431526 73.69141372 -67.1670876 74.45241552 -62.140625 75.21875 C-60.92462616 75.40408295 -59.70862732 75.58941589 -58.45578003 75.78036499 C-51.1781716 76.90558787 -43.93359337 78.13275303 -36.7109375 79.5703125 C-35.93630661 79.72383179 -35.16167572 79.87735107 -34.36357117 80.03552246 C-13.93601861 84.24731296 4.00600368 92.7147863 16.96484375 109.4375 C27.68277165 125.74620455 28.70595093 147.71785315 25.38330078 166.42822266 C21.86860777 183.30449071 12.75152308 196.28437683 -1.375 205.80859375 C-29.77827402 223.20090692 -70.15247028 223.84424427 -102.03515625 218.4375 C-103.13512939 218.2521167 -103.13512939 218.2521167 -104.25732422 218.06298828 C-127.05696178 214.02397153 -148.72445522 204.26242597 -163.23828125 185.60546875 C-164.99160422 182.94118015 -166.54887811 180.25856236 -168.03515625 177.4375 C-168.49277344 176.60089844 -168.95039062 175.76429688 -169.421875 174.90234375 C-172.13384077 169.50284434 -173.87747883 163.96229504 -175.34765625 158.125 C-175.51934326 157.47450684 -175.69103027 156.82401367 -175.86791992 156.15380859 C-177.53271249 148.97878709 -177.03515625 143.27089413 -177.03515625 135.4375 C-162.84515625 135.4375 -148.65515625 135.4375 -134.03515625 135.4375 C-132.71515625 141.0475 -131.39515625 146.6575 -130.03515625 152.4375 C-124.65692319 165.37433086 -116.53963669 173.26480127 -103.671875 178.9140625 C-82.48088618 186.97559551 -55.4600377 188.10375334 -34.53515625 178.75 C-28.18168983 175.344542 -24.89429807 171.15578364 -21.72265625 164.8125 C-18.88374933 155.00536699 -19.28259241 144.95836298 -23.03515625 135.4375 C-28.25008421 126.96324207 -35.73676888 123.01400953 -45.18812561 120.64830017 C-53.3545563 118.9175869 -61.51995631 117.50725632 -69.78125 116.31640625 C-72.35615333 115.93447082 -74.93102208 115.55230224 -77.50585938 115.16992188 C-81.49164868 114.58222586 -85.47805543 113.99887749 -89.46508789 113.41967773 C-144.00299715 105.4823502 -144.00299715 105.4823502 -161.09765625 83.625 C-171.16007232 69.70232201 -174.24292098 52.11668239 -171.70556641 35.24609375 C-169.34511151 22.57266481 -164.45301385 12.20953469 -156.03515625 2.4375 C-155.5246875 1.83164062 -155.01421875 1.22578125 -154.48828125 0.6015625 C-119.14783932 -38.06298041 -37.71607882 -31.84266114 0 0 Z " fill="#000000" transform="translate(967.03515625,448.5625)"/>
<path d="M0 0 C7.59 0 15.18 0 23 0 C23 17.16 23 34.32 23 52 C28.25808594 51.98839844 33.51617188 51.97679687 38.93359375 51.96484375 C42.2558606 51.95973691 45.57812264 51.95492313 48.90039062 51.95117188 C54.17880248 51.94518375 59.45719707 51.93808428 64.7355957 51.92456055 C68.98901115 51.91373056 73.24240809 51.90772293 77.49583626 51.90512276 C79.12221633 51.90326871 80.74859534 51.89964848 82.37496758 51.89426994 C84.64510193 51.88705802 86.91515885 51.88600912 89.18530273 51.88647461 C91.12722755 51.88314369 91.12722755 51.88314369 93.10838318 51.87974548 C96 52 96 52 97 53 C97 64.55 97 76.1 97 88 C72.58 88 48.16 88 23 88 C23 139.48 23 190.96 23 244 C45.77 244 68.54 244 92 244 C92 256.54 92 269.08 92 282 C84.49658497 282.04628563 76.99367921 282.08599736 69.49023438 282.10986328 C66.9456208 282.11982829 64.4010184 282.13340516 61.85644531 282.15087891 C8.36086334 282.5086385 8.36086334 282.5086385 -9.3125 266.375 C-21.66391094 253.08710913 -23.16145709 235.17531662 -23.11352539 217.98657227 C-23.11324301 216.5668386 -23.11340225 215.14710479 -23.1139679 213.72737122 C-23.11425389 209.88905226 -23.10838923 206.05076479 -23.10139394 202.21245313 C-23.09512736 198.19526153 -23.09455399 194.17806915 -23.09336853 190.16087341 C-23.09026494 182.56083302 -23.08206469 174.96080707 -23.07201904 167.36077303 C-23.06082767 158.70539647 -23.05533984 150.05001922 -23.05032361 141.39463723 C-23.03988124 123.59641497 -23.02154787 105.79821251 -23 88 C-37.52 88 -52.04 88 -67 88 C-67 79.75 -67 71.5 -67 63 C-63.74640625 62.18144531 -60.4928125 61.36289062 -57.140625 60.51953125 C-33.855415 55.41097168 -33.855415 55.41097168 -15.48143005 41.89833069 C-11.89141555 35.54363584 -10.18339075 28.50136007 -8.74755859 21.38916016 C-7.68346558 16.5649475 -5.82489639 12.24174401 -3.8125 7.75 C-3.27408552 6.43361962 -2.738515 5.11606888 -2.20703125 3.796875 C-1 1 -1 1 0 0 Z " fill="#000000" transform="translate(1064,380)"/>
</svg>
